<?xml version="1.0" standalone="no"?>
<!DOCTYPE svg PUBLIC "-//W3C//DTD SVG 20010904//EN"
 "http://www.w3.org/TR/2001/REC-SVG-20010904/DTD/svg10.dtd">
<svg version="1.0" xmlns="http://www.w3.org/2000/svg"
 width="456.000000pt" height="604.000000pt" viewBox="0 0 456.000000 604.000000"
 preserveAspectRatio="xMidYMid meet">
<metadata>
Created by potrace 1.15, written by Peter Selinger 2001-2017
</metadata>
<g transform="translate(0.000000,604.000000) scale(0.100000,-0.100000)"
fill="#000000" stroke="none">
<path d="M334 5824 c-170 -119 -315 -221 -322 -228 -10 -9 171 -274 883 -1290
492 -702 895 -1281 895 -1285 0 -4 -400 -584 -890 -1287 -489 -703 -888 -1282
-887 -1286 3 -10 633 -448 644 -448 4 0 370 522 813 1160 443 638 808 1158
812 1157 4 -1 368 -517 809 -1147 440 -630 806 -1150 812 -1157 9 -9 81 37
307 195 163 114 308 216 324 228 l28 20 -892 1274 c-491 700 -894 1279 -897
1285 -2 7 397 589 886 1294 490 704 891 1283 891 1285 0 7 -622 439 -639 443
-12 3 -247 -329 -821 -1156 -443 -638 -807 -1160 -810 -1160 -3 0 -369 521
-815 1159 -445 637 -813 1159 -816 1159 -3 1 -145 -96 -315 -215z"/>
</g>
</svg>
