<?xml version="1.0" standalone="no"?>
<!DOCTYPE svg PUBLIC "-//W3C//DTD SVG 20010904//EN"
 "http://www.w3.org/TR/2001/REC-SVG-20010904/DTD/svg10.dtd">
<svg version="1.0" xmlns="http://www.w3.org/2000/svg"
 width="464.000000pt" height="613.000000pt" viewBox="0 0 464.000000 613.000000"
 preserveAspectRatio="xMidYMid meet">
<metadata>
Created by potrace 1.15, written by Peter Selinger 2001-2017
</metadata>
<g transform="translate(0.000000,613.000000) scale(0.100000,-0.100000)"
fill="#000000" stroke="none">
<path d="M0 3074 c0 -2642 2 -3055 14 -3051 8 3 863 683 1901 1511 1037 828
1888 1506 1891 1506 2 0 4 -684 4 -1520 l0 -1520 415 0 415 0 0 3035 0 3035
-415 0 -415 0 0 -1480 c0 -814 -2 -1480 -5 -1480 -3 0 -856 679 -1897 1510
-1040 831 -1895 1510 -1900 1510 -4 0 -8 -1375 -8 -3056z"/>
</g>
</svg>
