<?xml version="1.0" standalone="no"?>
<!DOCTYPE svg PUBLIC "-//W3C//DTD SVG 20010904//EN"
 "http://www.w3.org/TR/2001/REC-SVG-20010904/DTD/svg10.dtd">
<svg version="1.0" xmlns="http://www.w3.org/2000/svg"
 width="438.000000pt" height="438.000000pt" viewBox="0 0 438.000000 438.000000"
 preserveAspectRatio="xMidYMid meet">
<metadata>
Created by potrace 1.15, written by Peter Selinger 2001-2017
</metadata>
<g transform="translate(0.000000,438.000000) scale(0.100000,-0.100000)"
fill="#000000" stroke="none">
<path d="M0 2190 l0 -2190 2190 0 2190 0 0 2190 0 2190 -2190 0 -2190 0 0
-2190z m3293 1647 c324 -101 548 -340 624 -665 17 -71 18 -145 18 -1027 l0
-950 -22 -85 c-74 -281 -272 -508 -535 -613 -158 -64 -103 -61 -1130 -64 -896
-4 -940 -3 -1032 16 -361 74 -641 361 -705 725 -7 39 -11 382 -11 983 0 803 2
934 16 1001 72 350 349 625 704 697 52 11 261 13 1025 12 l960 -2 88 -28z"/>
<path d="M1246 3554 c-200 -48 -383 -233 -431 -435 -23 -99 -22 -1852 1 -1943
53 -205 232 -383 435 -431 96 -22 1842 -22 1938 0 207 49 381 225 436 440 23
89 23 1841 0 1930 -55 215 -222 385 -430 440 -51 13 -180 15 -975 14 -753 -1
-925 -3 -974 -15z m2036 -290 c128 -90 108 -280 -37 -345 -55 -25 -102 -23
-162 6 -196 98 -120 385 100 372 44 -2 67 -10 99 -33z m-851 -283 c305 -78
538 -312 621 -623 26 -98 30 -286 9 -383 -72 -331 -336 -594 -666 -666 -77
-17 -273 -17 -350 0 -317 69 -576 317 -655 627 -76 295 9 601 226 818 129 130
302 218 476 245 88 14 249 5 339 -18z"/>
<path d="M2076 2724 c-94 -23 -193 -80 -272 -159 -184 -183 -227 -458 -107
-689 49 -95 154 -200 249 -249 233 -120 503 -78 689 108 149 148 207 352 160
554 -49 205 -231 387 -436 436 -79 18 -205 18 -283 -1z"/>
</g>
</svg>
