<?xml version="1.0" standalone="no"?>
<!DOCTYPE svg PUBLIC "-//W3C//DTD SVG 20010904//EN"
 "http://www.w3.org/TR/2001/REC-SVG-20010904/DTD/svg10.dtd">
<svg version="1.0" xmlns="http://www.w3.org/2000/svg"
 width="464.000000pt" height="604.000000pt" viewBox="0 0 464.000000 604.000000"
 preserveAspectRatio="xMidYMid meet">
<metadata>
Created by potrace 1.15, written by Peter Selinger 2001-2017
</metadata>
<g transform="translate(0.000000,604.000000) scale(0.100000,-0.100000)"
fill="#000000" stroke="none">
<path d="M2635 5080 l-1230 -960 -702 0 -703 0 0 -1125 0 -1125 738 -1 737 0
1195 -933 1195 -934 3 1352 c1 743 0 1361 -3 1374 -3 12 -9 22 -13 22 -4 0
-131 -191 -281 -425 -151 -234 -277 -425 -281 -425 -4 0 -57 37 -118 83 l-111
83 305 473 c167 259 304 476 304 482 0 5 -138 222 -306 481 -168 259 -302 474
-297 478 32 28 214 160 220 160 4 0 132 -192 283 -425 221 -341 277 -422 287
-412 10 10 13 291 11 1375 l-3 1362 -1230 -960z"/>
<path d="M3185 4054 c-55 -41 -101 -78 -103 -83 -1 -4 107 -176 241 -382 133
-206 271 -418 306 -471 l63 -98 -307 -475 c-169 -262 -306 -477 -304 -479 2
-1 50 -37 106 -79 l101 -76 665 1031 666 1031 -106 80 c-57 43 -106 77 -107
75 -1 -1 -161 -250 -356 -551 -194 -301 -355 -546 -357 -543 -3 2 28 55 68
117 40 62 72 118 72 124 0 7 -526 827 -547 852 -1 1 -46 -32 -101 -73z"/>
<path d="M3931 2884 c-69 -108 -73 -118 -60 -139 136 -216 536 -825 542 -825
4 0 53 34 108 76 96 72 100 77 86 97 -8 12 -143 221 -301 465 -159 243 -291
442 -294 442 -4 0 -40 -52 -81 -116z"/>
</g>
</svg>
