<?xml version="1.0" standalone="no"?>
<!DOCTYPE svg PUBLIC "-//W3C//DTD SVG 20010904//EN"
 "http://www.w3.org/TR/2001/REC-SVG-20010904/DTD/svg10.dtd">
<svg version="1.0" xmlns="http://www.w3.org/2000/svg"
 width="464.000000pt" height="603.000000pt" viewBox="0 0 464.000000 603.000000"
 preserveAspectRatio="xMidYMid meet">
<metadata>
Created by potrace 1.15, written by Peter Selinger 2001-2017
</metadata>
<g transform="translate(0.000000,603.000000) scale(0.100000,-0.100000)"
fill="#000000" stroke="none">
<path d="M2617 5069 l-1229 -959 -694 0 -694 0 0 -1125 0 -1125 738 0 737 0
1190 -930 c655 -511 1193 -929 1198 -930 4 0 7 1357 7 3015 0 2406 -3 3015
-12 3014 -7 0 -566 -432 -1241 -960z"/>
<path d="M4370 2990 l0 -1230 130 0 130 0 0 1230 0 1230 -130 0 -130 0 0
-1230z"/>
<path d="M3980 3020 l0 -1110 130 0 130 0 0 1110 0 1110 -130 0 -130 0 0
-1110z"/>
</g>
</svg>
