<?xml version="1.0" standalone="no"?>
<!DOCTYPE svg PUBLIC "-//W3C//DTD SVG 20010904//EN"
 "http://www.w3.org/TR/2001/REC-SVG-20010904/DTD/svg10.dtd">
<svg version="1.0" xmlns="http://www.w3.org/2000/svg"
 width="438.000000pt" height="439.000000pt" viewBox="0 0 438.000000 439.000000"
 preserveAspectRatio="xMidYMid meet">
<metadata>
Created by potrace 1.15, written by Peter Selinger 2001-2017
</metadata>
<g transform="translate(0.000000,439.000000) scale(0.100000,-0.100000)"
fill="#000000" stroke="none">
<path d="M0 2190 l0 -2190 2190 0 2190 0 0 2190 0 2190 -2190 0 -2190 0 0
-2190z m2835 745 c85 -22 249 -106 322 -165 139 -112 228 -255 281 -455 l29
-110 34 3 c19 2 88 4 154 5 119 2 121 2 195 -34 132 -63 227 -175 272 -322 68
-225 -79 -486 -319 -566 -61 -20 -80 -21 -781 -21 -545 0 -721 3 -730 12 -9 9
-12 202 -12 805 l0 793 23 14 c96 60 374 82 532 41z m-612 -141 c4 -16 9 -353
10 -749 2 -675 1 -723 -16 -748 -23 -35 -70 -37 -89 -4 -10 17 -13 172 -11
745 0 398 4 739 8 758 12 64 79 63 98 -2z m-176 -74 c9 -17 13 -81 13 -205 0
-99 5 -301 11 -450 11 -274 -2 -719 -22 -773 -7 -19 -15 -23 -41 -20 -31 3
-33 6 -42 53 -14 78 -10 1378 4 1405 16 29 60 24 77 -10z m-503 -96 c12 -12
16 -37 16 -102 0 -48 5 -242 11 -432 13 -415 -1 -766 -32 -803 l-18 -22 -22
21 c-18 18 -23 39 -30 130 -19 251 -2 1182 23 1211 14 17 33 16 52 -3z m161
-24 c15 -17 19 -51 26 -257 22 -594 10 -1031 -28 -1060 -49 -38 -60 -8 -72
197 -12 207 3 1091 19 1120 14 25 32 25 55 0z m-321 -12 c14 -24 19 -119 32
-663 7 -307 -12 -603 -42 -636 -17 -19 -18 -19 -36 -2 -24 24 -35 239 -33 633
3 421 14 657 32 675 20 20 30 19 47 -7z m496 -18 c19 -35 33 -828 19 -1070 -6
-113 -16 -211 -21 -217 -6 -7 -21 -13 -33 -13 -12 0 -27 6 -33 13 -5 6 -15
118 -22 247 -10 185 -10 318 0 625 6 215 16 400 21 413 11 29 54 30 69 2z
m-659 -62 c12 -22 18 -138 34 -648 9 -261 -13 -542 -44 -573 -19 -19 -19 -19
-34 4 -26 42 -37 367 -26 805 8 309 13 394 25 412 18 28 30 28 45 0z m-162
-142 c8 -9 17 -126 27 -333 14 -293 14 -334 -1 -523 -14 -170 -20 -208 -35
-224 -18 -18 -18 -18 -28 0 -5 11 -17 116 -26 234 -16 196 -16 242 -2 523 14
292 20 337 46 337 4 0 13 -6 19 -14z m-302 -307 c24 -193 27 -402 8 -584 -18
-171 -32 -218 -53 -179 -28 53 -41 466 -21 687 17 201 46 234 66 76z m-171 79
c15 -24 33 -251 34 -420 0 -169 -20 -382 -39 -417 -44 -78 -69 570 -30 782 12
65 20 79 35 55z m340 -233 c16 -189 16 -211 -1 -405 -18 -209 -28 -247 -55
-215 -10 12 -19 83 -29 228 -13 189 -13 231 1 399 15 191 27 234 54 206 9 -8
19 -83 30 -213z m-472 25 c9 -69 16 -170 16 -224 0 -111 -38 -357 -51 -333 -5
8 -16 54 -24 103 -28 156 -18 489 17 584 14 39 23 12 42 -130z m-149 -215 c0
-140 -3 -175 -17 -200 l-16 -30 -13 30 c-9 21 -13 83 -13 200 0 117 4 179 13
200 l13 30 16 -30 c14 -25 17 -60 17 -200z"/>
</g>
</svg>
