<?xml version="1.0" standalone="no"?>
<!DOCTYPE svg PUBLIC "-//W3C//DTD SVG 20010904//EN"
 "http://www.w3.org/TR/2001/REC-SVG-20010904/DTD/svg10.dtd">
<svg version="1.0" xmlns="http://www.w3.org/2000/svg"
 width="438.000000pt" height="438.000000pt" viewBox="0 0 438.000000 438.000000"
 preserveAspectRatio="xMidYMid meet">
<metadata>
Created by potrace 1.15, written by Peter Selinger 2001-2017
</metadata>
<g transform="translate(0.000000,438.000000) scale(0.100000,-0.100000)"
fill="#000000" stroke="none">
<path d="M0 2190 l0 -2190 2190 0 2190 0 0 2190 0 2190 -2190 0 -2190 0 0
-2190z m2430 1625 c348 -50 667 -213 930 -475 208 -208 343 -447 419 -743 45
-171 54 -268 48 -467 -9 -260 -47 -420 -152 -636 -170 -349 -433 -621 -750
-774 -384 -185 -851 -221 -1240 -94 -293 96 -632 341 -820 593 -124 166 -230
406 -275 623 -91 444 -25 837 204 1206 245 395 598 644 1057 746 63 14 130 27
149 29 90 10 334 5 430 -8z"/>
<path d="M1651 2980 c-201 -17 -486 -71 -552 -106 -62 -32 -107 -122 -94 -187
12 -54 45 -104 85 -126 48 -27 108 -27 208 -2 281 71 645 88 997 46 285 -34
466 -84 721 -201 92 -42 175 -74 193 -74 138 0 221 174 137 285 -36 46 -144
108 -301 172 -215 86 -447 144 -715 178 -149 19 -533 27 -679 15z"/>
<path d="M1555 2405 c-223 -34 -360 -73 -399 -114 -57 -60 -52 -166 10 -221
50 -43 87 -46 206 -16 179 45 297 59 503 59 362 1 652 -65 953 -214 134 -67
146 -71 194 -67 43 5 57 11 84 41 55 60 57 151 6 207 -94 103 -482 253 -803
310 -159 29 -608 38 -754 15z"/>
<path d="M1670 1879 c-88 -11 -350 -56 -402 -70 -94 -25 -117 -163 -37 -220
39 -28 84 -27 284 6 468 78 813 35 1164 -142 69 -35 134 -63 144 -63 34 0 87
32 102 61 18 34 19 98 3 134 -29 65 -307 193 -543 251 -206 50 -500 68 -715
43z"/>
</g>
</svg>
