<?xml version="1.0" standalone="no"?>
<!DOCTYPE svg PUBLIC "-//W3C//DTD SVG 20010904//EN"
 "http://www.w3.org/TR/2001/REC-SVG-20010904/DTD/svg10.dtd">
<svg version="1.0" xmlns="http://www.w3.org/2000/svg"
 width="535.000000pt" height="536.000000pt" viewBox="0 0 535.000000 536.000000"
 preserveAspectRatio="xMidYMid meet">
<metadata>
Created by potrace 1.15, written by Peter Selinger 2001-2017
</metadata>
<g transform="translate(0.000000,536.000000) scale(0.100000,-0.100000)"
fill="#000000" stroke="none">
<path d="M0 2680 l0 -2680 2675 0 2675 0 0 2680 0 2680 -2675 0 -2675 0 0
-2680z m3365 1550 c629 -16 934 -35 1045 -66 204 -58 342 -217 405 -467 88
-351 99 -1473 19 -1942 -53 -313 -200 -497 -448 -560 -250 -63 -1779 -87
-2876 -45 -411 16 -543 36 -678 101 -141 69 -221 168 -281 349 -38 116 -50
200 -72 490 -18 246 -20 341 -16 695 8 646 37 886 132 1093 69 149 222 263
395 296 261 50 1479 78 2375 56z"/>
<path d="M2200 2730 c0 -357 2 -650 5 -650 3 0 285 145 626 321 390 202 617
325 611 331 -9 9 -1229 648 -1238 648 -2 0 -4 -292 -4 -650z"/>
</g>
</svg>
